<svg xmlns="http://www.w3.org/2000/svg"
     viewBox="0 0 38 24"
     width="38"
     height="24"
     role="img">

  <!-- Frame -->
  <path opacity=".07"
        d="M35 0H3C1.3 0 0 1.3 0 3v18c0 1.7 1.4 3 3 3h32c1.7 0 3-1.3 3-3V3c0-1.7-1.4-3-3-3z"/>
  <path fill="#fff"
        d="M35 1c1.1 0 2 .9 2 2v18c0 1.1-.9 2-2 2H3c-1.1 0-2-.9-2-2V3c0-1.1.9-2 2-2h32"/>

  <g transform="translate(19 12) scale(0.035) translate(-486.5 -132)">
    
 <path d="M0 0 C11.9145752 0.0614568 23.82917177 0.11824536 35.74377011 0.17500551 C57.42505563 0.27841813 79.10632342 0.38520016 100.78758234 0.49402023 C124.71280831 0.61410015 148.63804519 0.73161742 172.56329715 0.84640676 C174.08102681 0.85369102 175.59875648 0.86097539 177.11648614 0.86825987 C183.2457835 0.8976744 189.37508092 0.92707381 195.50437841 0.95645912 C256.97001167 1.25115995 318.43559821 1.55448102 379.90115125 1.86545739 C386.39690978 1.89831917 392.89266843 1.93115782 399.38842714 1.96398353 C401.01588671 1.97220798 402.64334627 1.98043377 404.27080582 1.98866089 C430.92454402 2.12338657 457.5782981 2.25461889 484.23206199 2.3841539 C512.15810303 2.51988757 540.08412719 2.65866933 568.01013308 2.80145932 C571.9356982 2.82153083 575.86126349 2.84156954 579.78682887 2.86158926 C580.55826472 2.86552478 581.32970056 2.86946031 582.12451325 2.8735151 C594.43216695 2.93621827 606.73983391 2.99576365 619.04750912 3.0540752 C631.28217047 3.11211214 643.51681075 3.17357825 655.75143704 3.23859519 C662.35064039 3.27357136 668.9498445 3.30692025 675.54907596 3.33620054 C681.58113709 3.36299797 687.61315952 3.39414509 693.64518072 3.42875898 C695.82304596 3.44049078 698.00092048 3.45063012 700.17880121 3.45900512 C703.13959098 3.4706243 706.1002925 3.48808623 709.06104362 3.50696737 C709.90184568 3.50886754 710.74264774 3.51076772 711.60892865 3.51272548 C717.7942526 3.56127224 723.65867299 4.1086645 729.87817752 4.674074 C727.23817752 15.234074 724.59817752 25.794074 721.87817752 36.674074 C414.97817752 36.674074 108.07817752 36.674074 -208.12182248 36.674074 C-207.45642336 28.0238854 -206.62341881 19.83422302 -205.05932248 11.361574 C-204.87305295 10.32323415 -204.68678342 9.28489431 -204.49486936 8.21508962 C-204.04290657 5.70032235 -203.58520222 3.18675786 -203.12182248 0.674074 C-135.41147927 -0.37070219 -67.71527872 -0.35019556 0 0 Z " fill="#F18222" transform="translate(208.12182248011231,227.325926002115)"/>
<path d="M0 0 C1.1628653 -0.00630432 2.32573059 -0.01260864 3.52383423 -0.019104 C5.40961685 -0.01303131 5.40961685 -0.01303131 7.33349609 -0.00683594 C9.29190933 -0.00970612 9.29190933 -0.00970612 11.28988647 -0.01263428 C14.06228343 -0.01558423 16.83455163 -0.01130179 19.60693359 -0.00195312 C23.10553394 0.00928704 26.60382513 0.00278453 30.10241413 -0.00882339 C81.5303931 -0.15430181 81.5303931 -0.15430181 97.97021484 14.84472656 C104.61342423 21.86707693 106.70473323 29.76299247 106.5625 39.24609375 C106.03178385 47.82028217 103.68366104 56.23672035 101.73193359 64.57128906 C101.24912176 66.67447106 100.7667106 68.77774508 100.28466797 70.88110352 C96.12647424 88.8933657 91.71886888 106.84785575 87.26663208 124.78939438 C86.73304278 126.94181476 86.20145695 129.09472247 85.67016602 131.24771118 C84.82712168 134.66014462 83.97600621 138.07047036 83.11862183 141.47932816 C82.65141532 143.3427344 82.19072398 145.20777038 81.73022461 147.07284546 C79.00618407 157.82161909 79.00618407 157.82161909 76.23193359 162.25878906 C73.9018338 163.42383896 72.55946282 163.37972486 69.96582031 163.37231445 C68.64467728 163.37220116 68.64467728 163.37220116 67.29684448 163.37208557 C66.34472076 163.36692429 65.39259705 163.361763 64.41162109 163.35644531 C63.43782501 163.35503036 62.46402893 163.35361542 61.46072388 163.35215759 C58.34276286 163.34654879 55.224873 163.3339948 52.10693359 163.32128906 C49.99625755 163.3162752 47.88558037 163.31171209 45.77490234 163.30761719 C40.59388838 163.29657651 35.41291607 163.2798298 30.23193359 163.25878906 C30.23193359 161.27878906 30.23193359 159.29878906 30.23193359 157.25878906 C29.40951172 157.52433594 28.58708984 157.78988281 27.73974609 158.06347656 C26.06525391 158.59328125 26.06525391 158.59328125 24.35693359 159.13378906 C22.72111328 159.65585937 22.72111328 159.65585937 21.05224609 160.18847656 C12.96067971 162.45543892 5.32733717 163.6259924 -3.08056641 163.57128906 C-3.99700928 163.56564941 -4.91345215 163.56000977 -5.85766602 163.55419922 C-19.94691365 163.30333734 -33.1307882 159.84203455 -43.70556641 150.07128906 C-51.35739939 141.75287172 -54.20707963 132.47945057 -53.76806641 121.25878906 C-51.56463736 103.68934166 -43.32180669 88.62703464 -29.76806641 77.25878906 C-8.27474955 62.46571157 17.24920986 58.55863474 42.79443359 57.69628906 C43.99390625 57.65310547 45.19337891 57.60992187 46.42919922 57.56542969 C49.36335152 57.46022104 52.29757609 57.35808024 55.23193359 57.25878906 C56.27280731 52.82730357 56.27280731 52.82730357 54.91943359 48.63378906 C42.69375884 37.8297044 21.81157151 41.14915906 6.60693359 41.25878906 C2.84391585 41.28541867 -0.91905255 41.30533897 -4.68212891 41.32128906 C-5.96333115 41.33373657 -5.96333115 41.33373657 -7.27041626 41.34643555 C-8.46348892 41.35139038 -8.46348892 41.35139038 -9.68066406 41.35644531 C-10.72318832 41.36430054 -10.72318832 41.36430054 -11.78677368 41.37231445 C-13.88726549 41.25195912 -15.74750472 40.83083088 -17.76806641 40.25878906 C-19.37460049 33.59914486 -17.84028904 28.32027115 -16.01806641 21.82128906 C-15.75251953 20.82291016 -15.48697266 19.82453125 -15.21337891 18.79589844 C-10.9555718 3.07714937 -10.9555718 3.07714937 -8.03189087 1.06231689 C-5.24275055 0.07233206 -2.9611638 0.00461718 0 0 Z M24.85693359 89.38378906 C23.60565674 89.71938843 23.60565674 89.71938843 22.32910156 90.06176758 C13.27582766 92.62483118 5.53268976 96.22734032 0.23193359 104.25878906 C-2.26827221 109.22871036 -3.39182097 113.64499798 -2.76806641 119.25878906 C-1.44843895 123.07104615 -0.55277188 124.77509799 2.89990234 126.90332031 C11.4606335 130.38582173 21.63468164 128.97887359 29.99365234 125.46191406 C33.03729533 123.82588956 35.07059762 121.94408528 37.23193359 119.25878906 C37.88806641 118.54207031 38.54419922 117.82535156 39.22021484 117.08691406 C41.62366212 113.70808722 42.56936296 110.42195539 43.48193359 106.44628906 C43.65466797 105.77275391 43.82740234 105.09921875 44.00537109 104.40527344 C45.22433981 99.35042301 46.6416677 93.07825728 44.23193359 88.25878906 C38.42207599 85.35386026 30.78722654 87.78616025 24.85693359 89.38378906 Z " fill="#2D307F" transform="translate(625.76806640625,42.7412109375)"/>
<path d="M0 0 C0.84049393 0.00037766 1.68098785 0.00075531 2.54695129 0.00114441 C3.88628975 0.03985405 3.88628975 0.03985405 5.25268555 0.0793457 C6.1778447 0.08642044 7.10300385 0.09349518 8.05619812 0.1007843 C11.00143432 0.1286988 13.94474602 0.19143138 16.8894043 0.25512695 C18.89002782 0.28021365 20.89068124 0.30302617 22.89135742 0.32348633 C27.78727746 0.37851587 32.68176497 0.46476794 37.5769043 0.56762695 C38.5669043 3.53762695 38.5669043 3.53762695 39.5769043 6.56762695 C43.95799584 5.62081165 48.32387335 4.653567 52.6550293 3.49731445 C69.53751853 -0.86731859 88.30887025 -2.25389007 104.3269043 5.75512695 C112.23585542 10.5636544 117.75781669 16.69626087 120.5769043 25.56762695 C123.1926473 36.55016435 121.51247716 47.08802357 119.2175293 57.94262695 C118.95775803 59.18230225 118.69798676 60.42197754 118.43034363 61.69921875 C114.84400234 78.55189145 110.56129269 95.2458934 106.31689453 111.94213867 C105.11007923 116.69024918 103.91669291 121.44162751 102.72660542 126.19395447 C101.79810948 129.89456214 100.86204758 133.59322378 99.92372704 137.29135132 C99.47988553 139.04496295 99.03854076 140.79920859 98.59981728 142.55410767 C97.99101567 144.98515298 97.37187869 147.41333648 96.75 149.84106445 C96.57384659 150.55363907 96.39769318 151.26621368 96.21620178 152.00038147 C95.19048411 155.95273077 93.96183208 159.23715881 91.5769043 162.56762695 C89.29879791 163.70668015 88.0399406 163.69429685 85.51025391 163.69702148 C84.67276108 163.70017365 83.83526825 163.70332581 82.97239685 163.70657349 C82.06715775 163.70454926 81.16191864 163.70252502 80.22924805 163.70043945 C79.30221573 163.70139618 78.37518341 163.70235291 77.4200592 163.70333862 C75.45891248 163.70401972 73.4977635 163.70217035 71.53662109 163.69799805 C68.52330503 163.69264277 65.51013762 163.69794854 62.49682617 163.7043457 C60.59513313 163.70368503 58.69344019 163.70240409 56.79174805 163.70043945 C55.88448471 163.70246368 54.97722137 163.70448792 54.04246521 163.70657349 C47.69185807 163.68258073 47.69185807 163.68258073 46.5769043 162.56762695 C45.75690128 153.51334768 48.41198553 145.02841491 50.62768555 136.3371582 C51.04746923 134.65744721 51.46624914 132.97748507 51.88407898 131.29728699 C52.98350458 126.8863352 54.09507731 122.47853958 55.2097168 118.07141113 C56.77107762 111.88906163 58.31618665 105.70262835 59.8625946 99.51652527 C60.68397083 96.23080191 61.51005544 92.94632337 62.34016418 89.66279602 C68.97571259 68.35204705 68.97571259 68.35204705 67.2019043 47.00512695 C62.64017207 42.76923274 57.71960899 41.66570876 51.57299805 41.47387695 C45.25463072 41.79665434 38.75496565 42.69153496 33.5769043 46.56762695 C28.91163716 52.17477027 27.121093 57.3980534 25.3737793 64.41918945 C25.08597595 65.53016998 24.79817261 66.64115051 24.50164795 67.78579712 C19.52095659 87.27915881 15.07437604 106.91446606 10.53637695 126.5144043 C9.49265579 131.02021504 8.43952791 135.52374039 7.3804245 140.02595901 C6.98289252 141.72435941 6.58898499 143.42361259 6.19886017 145.12372971 C5.65826487 147.478779 5.10578548 149.8307423 4.55053711 152.18237305 C4.39465622 152.87520386 4.23877533 153.56803467 4.07817078 154.28186035 C3.19434007 157.96393397 2.36697575 160.92317816 -0.4230957 163.56762695 C-2.47877502 164.05537415 -2.47877502 164.05537415 -4.86279297 164.03759766 C-5.75704483 164.04052322 -6.65129669 164.04344879 -7.57264709 164.04646301 C-8.5352092 164.02895493 -9.4977713 164.01144684 -10.48950195 163.9934082 C-11.47933578 163.99012009 -12.46916962 163.98683197 -13.48899841 163.98344421 C-15.58127414 163.97301959 -17.6735208 163.95306337 -19.765625 163.92431641 C-22.97647897 163.88025207 -26.18658623 163.86288438 -29.39770508 163.85083008 C-31.42831487 163.83740593 -33.45891543 163.82248294 -35.48950195 163.8059082 C-36.45408829 163.79852127 -37.41867462 163.79113434 -38.41249084 163.78352356 C-39.30359055 163.77068832 -40.19469025 163.75785309 -41.11279297 163.74462891 C-42.29168846 163.72986259 -42.29168846 163.72986259 -43.49440002 163.71479797 C-45.4230957 163.56762695 -45.4230957 163.56762695 -47.4230957 162.56762695 C-46.75320426 155.86971061 -45.30513458 149.51889206 -43.66674805 142.99633789 C-43.38523895 141.85996384 -43.10372986 140.72358978 -42.81369019 139.55278015 C-41.88320917 135.80141107 -40.94615671 132.05171669 -40.0090332 128.30200195 C-39.35371145 125.66789015 -38.69978005 123.03343371 -38.04580688 120.39898682 C-36.49607259 114.15950791 -34.94158569 107.92122327 -33.38539183 101.68335271 C-31.64206952 94.69439577 -29.9041277 87.70410487 -28.16662669 80.71369886 C-26.03453833 72.13634366 -23.90100507 63.55934842 -21.76449585 54.98309326 C-21.4639863 53.77605869 -21.16347675 52.56902412 -20.85386086 51.32541275 C-20.26112874 48.95025695 -19.66608214 46.57567739 -19.06857872 44.20171738 C-17.68830903 38.70848726 -16.3303409 33.21299404 -15.05257881 27.69487166 C-14.59885205 25.74049165 -14.13672326 23.78806843 -13.67449379 21.83568192 C-13.09650717 19.39064151 -12.53232776 16.94228118 -11.98436546 14.49033737 C-8.48928277 -0.1282369 -8.48928277 -0.1282369 0 0 Z " fill="#2D307F" transform="translate(356.423095703125,42.432373046875)"/>
<path d="M0 0 C1.50599477 0.00374135 3.01199201 0.006583 4.51799011 0.00857544 C8.43550628 0.01612372 12.3528684 0.03569375 16.27032471 0.0579834 C20.28631508 0.07863432 24.30233093 0.08761783 28.31835938 0.09765625 C36.16413187 0.11895025 44.00977853 0.15297627 51.85546875 0.1953125 C52.83533189 4.47232768 52.63028559 7.18106439 51.52734375 11.45703125 C51.22183594 12.65908203 50.91632813 13.86113281 50.6015625 15.09960938 C50.10849609 16.97229492 50.10849609 16.97229492 49.60546875 18.8828125 C49.29222656 20.11193359 48.97898438 21.34105469 48.65625 22.60742188 C47.74717584 26.14375807 46.80773538 29.67039006 45.85546875 33.1953125 C45.46004883 34.70665771 45.46004883 34.70665771 45.05664062 36.24853516 C44.68635742 37.59310791 44.68635742 37.59310791 44.30859375 38.96484375 C44.09879883 39.74061768 43.88900391 40.5163916 43.67285156 41.31567383 C42.85546875 43.1953125 42.85546875 43.1953125 39.85546875 45.1953125 C37.72868347 45.4468689 37.72868347 45.4468689 35.23901367 45.45068359 C34.3034111 45.45764252 33.36780853 45.46460144 32.40385437 45.47177124 C30.88523552 45.47027573 30.88523552 45.47027573 29.3359375 45.46875 C27.17642736 45.48906579 25.01692221 45.50991701 22.85742188 45.53125 C19.46553362 45.55369506 16.07384345 45.57025868 12.68188477 45.57617188 C-8.19381777 45.63749435 -25.86943087 47.5574009 -41.73828125 62.59765625 C-59.07794667 81.31661324 -68.38647216 106.91210193 -69.95703125 132.0703125 C-70.01020508 132.8550293 -70.06337891 133.63974609 -70.11816406 134.44824219 C-70.4815954 142.16542828 -69.3555553 149.16149518 -64.14453125 155.1953125 C-57.78250052 159.4502604 -51.36353409 160.30244214 -43.80371094 160.36889648 C-42.56933289 160.38238632 -41.33495483 160.39587616 -40.06317139 160.40977478 C-38.74423889 160.42021317 -37.4253064 160.43065155 -36.06640625 160.44140625 C-34.68970974 160.45692252 -33.31302089 160.47313311 -31.93634033 160.49000549 C-26.10934229 160.56050545 -20.28227933 160.62112431 -14.45507812 160.67211914 C-10.88190301 160.70385559 -7.30894151 160.74509795 -3.73593903 160.79231453 C-2.3755805 160.80834429 -1.01517304 160.82066138 0.34525299 160.82922173 C2.24098887 160.84133557 4.13662782 160.8665136 6.03222656 160.89233398 C7.11111145 160.90264145 8.18999634 160.91294891 9.30157471 160.92356873 C11.85546875 161.1953125 11.85546875 161.1953125 13.85546875 163.1953125 C13.57865332 170.84030347 11.50820394 178.11886018 9.52685547 185.47192383 C8.97770039 187.51812768 8.44542116 189.56825263 7.9140625 191.61914062 C7.56480841 192.93255967 7.21458242 194.24572075 6.86328125 195.55859375 C6.5502002 196.73719971 6.23711914 197.91580566 5.91455078 199.13012695 C4.86005569 202.18203702 4.09062346 203.89569244 1.85546875 206.1953125 C-0.70669556 206.69651794 -0.70669556 206.69651794 -3.81494141 206.69702148 C-4.98110992 206.70640244 -6.14727844 206.71578339 -7.3487854 206.72544861 C-8.61427216 206.71421463 -9.87975891 206.70298065 -11.18359375 206.69140625 C-13.14768692 206.6935891 -13.14768692 206.6935891 -15.15145874 206.69581604 C-17.93418322 206.69720265 -20.71639414 206.68462299 -23.49902344 206.66186523 C-27.01468892 206.63386196 -30.5294849 206.6363909 -34.04521179 206.64855576 C-61.19527947 206.72392643 -85.73215331 204.80798432 -106.7421875 185.8515625 C-119.89900321 172.32134801 -121.32035542 156.17827303 -121.20703125 138.25463867 C-120.36364519 96.97154973 -108.02126321 56.41823289 -78.24267578 26.80249023 C-66.83422896 15.94402825 -52.62373643 8.97966765 -37.64453125 4.4453125 C-36.66746216 4.14705566 -36.66746216 4.14705566 -35.6706543 3.84277344 C-23.91679786 0.4882277 -12.14625249 -0.09010493 0 0 Z " fill="#2E307F" transform="translate(139.14453125,-0.1953125)"/>
<path d="M0 0 C9.69386151 7.45874836 16.05898662 17.8550842 18 30 C19.1828039 45.9126552 18.56680097 61.67654074 14 77 C13.78569336 77.72719238 13.57138672 78.45438477 13.35058594 79.20361328 C6.0100438 103.34619691 -8.28393549 126.38700841 -30.578125 139.1875 C-55.37447175 152.321638 -80.61530411 155.48782721 -107.84375 147.93359375 C-121.6159769 143.05861156 -129.57023689 134.44979773 -135.8125 121.4375 C-139.66254018 113.01471585 -140.36400635 104.66077211 -140.3125 95.5 C-140.30686035 94.44409668 -140.3012207 93.38819336 -140.29541016 92.30029297 C-139.89335236 66.09488219 -131.07529353 39.37463572 -113 20 C-112.5369043 19.50129395 -112.07380859 19.00258789 -111.59667969 18.48876953 C-82.97857802 -12.0466505 -36.89548696 -23.93497462 0 0 Z M-75.97265625 44.38671875 C-87.21742411 59.73397335 -93.5492006 77.90773904 -92 97 C-90.18461742 103.67023427 -85.98870955 107.6868754 -80.09375 111.10546875 C-74.04699422 113.68887747 -67.82398637 112.21305525 -61.9375 109.875 C-46.57005662 102.85213756 -37.69044738 91.83609241 -31.44921875 76.296875 C-30.19840192 72.88756895 -29.05792744 69.47359981 -28 66 C-27.75378906 65.21238281 -27.50757813 64.42476562 -27.25390625 63.61328125 C-25.25639682 56.16050467 -24.37893928 46.98028301 -27.3125 39.77734375 C-30.15681608 35.09607353 -33.83196004 32.10922974 -38.6875 29.625 C-54.71557607 26.6008347 -65.76029989 32.03077867 -75.97265625 44.38671875 Z " fill="#2E307F" transform="translate(301,55)"/>
<path d="M0 0 C0.85421036 -0.0030011 1.70842072 -0.0060022 2.58851624 -0.00909424 C3.50733078 0.00325256 4.42614532 0.01559937 5.37280273 0.02832031 C6.31824448 0.03019348 7.26368622 0.03206665 8.23777771 0.03399658 C10.23586556 0.04071842 12.23394022 0.05463553 14.23193359 0.07519531 C17.29789393 0.10635889 20.36334033 0.11616687 23.42944336 0.12207031 C25.36890278 0.13123991 27.30835696 0.14161554 29.24780273 0.15332031 C30.16864151 0.15757019 31.08948029 0.16182007 32.03822327 0.16619873 C33.31481056 0.18061005 33.31481056 0.18061005 34.6171875 0.1953125 C35.74278831 0.2055545 35.74278831 0.2055545 36.89112854 0.21600342 C38.74389648 0.35644531 38.74389648 0.35644531 40.74389648 1.35644531 C40.36701075 7.11369987 39.53481195 12.60167802 38.20092773 18.21972656 C37.7925769 19.95089722 37.7925769 19.95089722 37.37597656 21.71704102 C37.16739014 22.58804443 36.95880371 23.45904785 36.74389648 24.35644531 C37.9451416 24.3512085 39.14638672 24.34597168 40.3840332 24.34057617 C44.83064024 24.32250878 49.27724402 24.31100691 53.72387695 24.30151367 C55.65031479 24.29647745 57.57674879 24.28964819 59.50317383 24.28100586 C62.26832016 24.26890923 65.03341607 24.26320998 67.79858398 24.25878906 C69.09552689 24.25104713 69.09552689 24.25104713 70.41867065 24.2431488 C76.51615307 24.24257361 76.51615307 24.24257361 78.74389648 25.35644531 C79.20633856 33.55589897 77.50140301 40.80793998 75.49389648 48.73144531 C75.04336914 50.63603516 75.04336914 50.63603516 74.58374023 52.57910156 C74.28081055 53.79210937 73.97788086 55.00511719 73.66577148 56.25488281 C73.39345703 57.35493652 73.12114258 58.45499023 72.84057617 59.58837891 C71.5373866 62.8776851 70.95140493 63.8591209 67.74389648 65.35644531 C64.62468868 65.81131957 61.53301839 65.84520228 58.38452148 65.86816406 C57.48014343 65.88611526 56.57576538 65.90406647 55.64398193 65.92256165 C52.76066728 65.97666389 49.87751816 66.01056005 46.99389648 66.04394531 C45.0368422 66.07711847 43.07980976 66.11160812 41.12280273 66.14746094 C36.32995342 66.23239036 31.5371532 66.29920201 26.74389648 66.35644531 C24.16556511 73.68944416 22.22224877 81.09102025 20.38842773 88.64160156 C20.08192795 89.89726425 19.77542816 91.15292694 19.4596405 92.44664001 C18.81563408 95.08915345 18.17492552 97.7324424 17.53613281 100.3762207 C16.72126896 103.74602967 15.89440091 107.11276877 15.06457996 110.47892094 C14.26853168 113.71867715 13.48559635 116.96157064 12.70092773 120.20410156 C12.40410599 121.40325699 12.10728424 122.60241241 11.8014679 123.83790588 C10.37651904 129.79635626 9.15740024 135.2247317 9.74389648 141.35644531 C11.9379938 144.30280457 13.41889118 145.99970761 17.00634766 146.96557617 C20.13624438 147.41246502 23.19678553 147.57183446 26.35717773 147.67285156 C27.6043457 147.71474609 28.85151367 147.75664062 30.13647461 147.79980469 C31.43004883 147.83912109 32.72362305 147.8784375 34.05639648 147.91894531 C36.02576172 147.9837207 36.02576172 147.9837207 38.03491211 148.04980469 C41.27113936 148.15571758 44.50744106 148.25779417 47.74389648 148.35644531 C48.81189704 153.0747895 48.54637421 156.45943988 47.41577148 161.14550781 C46.95750977 163.05203125 46.95750977 163.05203125 46.48999023 164.99707031 C46.32611816 165.65126953 46.16224609 166.30546875 45.9934082 166.97949219 C45.4944533 168.9792137 45.01839941 170.98342698 44.54467773 172.98925781 C41.83247264 184.06315746 41.83247264 184.06315746 38.74389648 187.35644531 C36.61038208 187.85092163 36.61038208 187.85092163 34.11157227 187.84228516 C33.172742 187.84843842 32.23391174 187.85459167 31.26663208 187.8609314 C29.74330765 187.83937485 29.74330765 187.83937485 28.18920898 187.81738281 C27.13667938 187.81646637 26.08414978 187.81554993 24.99972534 187.81460571 C22.76531485 187.80855633 20.53091297 187.79277056 18.29663086 187.76806641 C14.9167605 187.73195668 11.53800057 187.72704447 8.15795898 187.72753906 C-21.39736325 187.63138633 -21.39736325 187.63138633 -30.25610352 181.35644531 C-31.10172852 180.82019531 -31.94735352 180.28394531 -32.81860352 179.73144531 C-38.97823442 173.72975366 -42.38953026 166.52041193 -42.56860352 157.98144531 C-42.61485627 144.14673295 -38.9862267 130.51078835 -35.34803772 117.24781799 C-33.44809998 110.27476107 -31.81339301 103.25148182 -30.19750977 96.20800781 C-26.22583194 79.02621311 -22.02848153 61.90133155 -17.77514648 44.78735352 C-16.91601096 41.32817859 -16.06327909 37.86751163 -15.21557617 34.40551758 C-14.172946 30.14757466 -13.1200866 25.89228936 -12.05962372 21.63875389 C-11.66213674 20.03725565 -11.26822882 18.43486447 -10.87805939 16.83156776 C-10.33849027 14.61762329 -9.78580464 12.40735866 -9.22973633 10.19750977 C-8.91997864 8.94452591 -8.61022095 7.69154205 -8.29107666 6.40058899 C-6.66070954 1.60522616 -5.0904021 -0.02470423 0 0 Z " fill="#2E307F" transform="translate(894.256103515625,18.6435546875)"/>
<path d="M0 0 C0.12504615 7.50276923 0.12504615 7.50276923 -0.49609375 9.97265625 C-1.0673806 12.27108941 -1.13282024 14.32187865 -1.125 16.6875 C-1.12757813 17.47511719 -1.13015625 18.26273438 -1.1328125 19.07421875 C-1.21127778 21.00764914 -1.21127778 21.00764914 0 22 C8.42594305 23.44505455 17.0193724 23.34101409 25.54663086 23.55224609 C27.57155716 23.60376132 29.59633126 23.66115499 31.62109375 23.71875 C33.42211548 23.76418945 33.42211548 23.76418945 35.25952148 23.81054688 C38 24 38 24 39 25 C38.90596929 32.75598333 36.97428235 40.37317435 35.1875 47.875 C34.93935547 48.98875 34.69121094 50.1025 34.43554688 51.25 C34.18224609 52.31992188 33.92894531 53.38984375 33.66796875 54.4921875 C33.44391357 55.45495605 33.2198584 56.41772461 32.98901367 57.40966797 C31.75022892 60.65417702 30.89039134 62.02642111 28 64 C24.88258213 64.6015481 21.80851218 64.60493278 18.640625 64.609375 C17.73624695 64.62591125 16.8318689 64.64244751 15.90008545 64.65948486 C13.01665479 64.70799979 10.13375166 64.72934344 7.25 64.75 C5.29294216 64.77815678 3.33590893 64.80808379 1.37890625 64.83984375 C-3.41401908 64.91375969 -8.20665096 64.96331298 -13 65 C-15.17407309 69.06786514 -16.64541524 72.85952897 -17.73339844 77.33740234 C-18.188367 79.18995132 -18.188367 79.18995132 -18.65252686 81.07992554 C-18.97204417 82.41512708 -19.29097931 83.75046805 -19.609375 85.0859375 C-19.94353948 86.47073227 -20.27795533 87.8554664 -20.61260986 89.24014282 C-21.31027344 92.135435 -22.00194395 95.03208401 -22.68994141 97.9296875 C-23.56880766 101.6271867 -24.46697356 105.31969284 -25.37029648 109.01128197 C-26.06612698 111.86763541 -26.74927364 114.72691379 -27.42896271 117.58714676 C-27.75467764 118.94924136 -28.08477615 120.31029601 -28.419487 121.67020798 C-30.96869128 131.78682929 -30.96869128 131.78682929 -30 142 C-26.03819966 146.09386035 -21.63049484 146.14752277 -16.1796875 146.28125 C-15.19079025 146.30886414 -15.19079025 146.30886414 -14.18191528 146.33703613 C-11.3641159 146.41565027 -8.5460862 146.48366927 -5.72802734 146.55224609 C-3.6701226 146.60384757 -1.61243084 146.66112196 0.4453125 146.71875 C1.67781738 146.74904297 2.91032227 146.77933594 4.18017578 146.81054688 C7 147 7 147 8 148 C7.92162957 155.96157651 5.86739108 163.79566875 4.0625 171.5 C3.79759766 172.67820313 3.53269531 173.85640625 3.25976562 175.0703125 C3.00001953 176.19179687 2.74027344 177.31328125 2.47265625 178.46875 C2.12086304 179.99145508 2.12086304 179.99145508 1.76196289 181.54492188 C1 184 1 184 -1 186 C-2.99307251 186.26742554 -2.99307251 186.26742554 -5.47119141 186.29052734 C-6.40041412 186.30328705 -7.32963684 186.31604675 -8.28701782 186.32919312 C-9.29831757 186.33141876 -10.30961731 186.33364441 -11.3515625 186.3359375 C-12.92180679 186.3459227 -12.92180679 186.3459227 -14.52377319 186.35610962 C-16.751508 186.36625965 -18.97927335 186.37092592 -21.20703125 186.37060547 C-24.563039 186.37492034 -27.91766788 186.41105121 -31.2734375 186.44921875 C-47.71187201 186.53626062 -64.25366462 186.32673877 -76.80078125 174.26953125 C-82.80534289 167.77772594 -83.36570175 161.29456579 -83.22940063 152.66891479 C-82.88395656 147.14406135 -81.74561422 141.98267282 -80.38671875 136.62890625 C-80.10518448 135.4637851 -79.82365021 134.29866394 -79.53358459 133.09823608 C-78.76124246 129.91432167 -77.97501952 126.73424336 -77.18235779 123.55533981 C-76.34170324 120.16994324 -75.51868821 116.78026524 -74.69433594 113.39086914 C-73.63011769 109.01974539 -72.56398021 104.64912106 -71.49026489 100.28031921 C-68.78697274 89.27602611 -66.1447467 78.25804355 -63.52926064 67.23256874 C-62.24081076 61.80346123 -60.94783074 56.37543035 -59.65537167 50.94727612 C-58.59832561 46.50675125 -57.54321038 42.06578613 -56.49227905 37.62380981 C-55.49676449 33.41788427 -54.49388423 29.21377832 -53.48565483 25.01088333 C-53.11417385 23.45681463 -52.74528049 21.90212476 -52.37916756 20.34678268 C-51.87518837 18.20726728 -51.36205119 16.07014495 -50.84667969 13.93334961 C-50.56105164 12.73326767 -50.27542358 11.53318573 -49.98114014 10.29673767 C-48.912844 6.70714634 -47.71231642 2.71231642 -45 0 C-43.02051343 -0.15916897 -41.03559513 -0.25147776 -39.05078125 -0.31640625 C-37.18776367 -0.37924805 -37.18776367 -0.37924805 -35.28710938 -0.44335938 C-33.97548828 -0.48267578 -32.66386719 -0.52199219 -31.3125 -0.5625 C-29.42047852 -0.62727539 -29.42047852 -0.62727539 -27.49023438 -0.69335938 C-2.96875 -1.484375 -2.96875 -1.484375 0 0 Z " fill="#2D317F" transform="translate(559,20)"/>
<path d="M0 0 C2.63278796 0.00542385 5.26541015 -0.00000654 7.89819336 -0.00634766 C9.57332394 -0.00568793 11.24845443 -0.00440897 12.92358398 -0.00244141 C13.70995743 -0.00446564 14.49633087 -0.00648987 15.30653381 -0.00857544 C20.81467255 0.0153685 20.81467255 0.0153685 23.04467773 1.13037109 C22.44433641 8.63874963 20.87315549 15.778126 19.08837891 23.08959961 C18.60275109 25.08606953 18.13093568 27.08548946 17.65991211 29.08544922 C17.35504883 30.34679687 17.05018555 31.60814453 16.73608398 32.90771484 C16.45966064 34.0548999 16.1832373 35.20208496 15.8984375 36.3840332 C15.04467773 39.13037109 15.04467773 39.13037109 13.04467773 41.13037109 C10.24657297 41.32794215 7.53931546 41.40727514 4.73999023 41.40380859 C3.02383825 41.42412924 1.30769249 41.44498053 -0.40844727 41.46630859 C-3.10478934 41.48872937 -5.80088406 41.50530642 -8.49731445 41.51123047 C-25.00288433 41.57233958 -37.56171799 43.63182237 -50.17797852 55.16162109 C-61.53747615 66.88207473 -66.14627773 86.15376385 -65.95532227 102.13037109 C-65.37906144 108.02596257 -63.81452006 112.52077373 -59.95532227 117.13037109 C-53.14330026 122.70384364 -45.60950482 123.41552261 -37.15063477 123.47412109 C-36.34544403 123.4887439 -35.5402533 123.5033667 -34.71066284 123.51843262 C-31.29888022 123.58024583 -27.88693376 123.62054543 -24.47485352 123.66210938 C-21.97075097 123.69573102 -19.46703931 123.740822 -16.96313477 123.78662109 C-16.18922394 123.79189819 -15.41531311 123.79717529 -14.61795044 123.8026123 C-9.18104866 123.9046447 -9.18104866 123.9046447 -6.95532227 126.13037109 C-7.19301896 132.90472679 -8.89060122 139.32370798 -10.51025391 145.875 C-11.4620061 149.78365645 -12.21134581 153.54455249 -12.51782227 157.56787109 C-12.66219727 158.74349609 -12.80657227 159.91912109 -12.95532227 161.13037109 C-16.13172587 163.2479735 -16.93220588 163.38461898 -20.57177734 163.4050293 C-21.9751812 163.41932732 -21.9751812 163.41932732 -23.40693665 163.43391418 C-24.41934921 163.43300278 -25.43176178 163.43209137 -26.47485352 163.43115234 C-27.52501144 163.43543747 -28.57516937 163.4397226 -29.65715027 163.44413757 C-31.88731161 163.44988794 -34.1174917 163.45037596 -36.34765625 163.44604492 C-39.71656665 163.44291866 -43.08456955 163.46621737 -46.45336914 163.49169922 C-66.32605362 163.55106145 -83.50463233 161.2214579 -99.95532227 149.13037109 C-100.82157227 148.55287109 -101.68782227 147.97537109 -102.58032227 147.38037109 C-110.71546121 139.67339735 -116.32109199 128.92124006 -117.13232422 117.67700195 C-117.87135194 86.54067461 -110.68214286 55.59385932 -88.95532227 32.13037109 C-88.19735352 31.28087891 -87.43938477 30.43138672 -86.65844727 29.55615234 C-64.01477016 5.39549687 -31.61591655 -0.07783485 0 0 Z " fill="#2E307F" transform="translate(841.955322265625,42.86962890625)"/>
<path d="M0 0 C-1.63595825 12.5016511 -4.4188842 24.61064415 -7 37 C-47.59 37 -88.18 37 -130 37 C-129.33460088 28.3498114 -128.50159633 20.16014902 -126.9375 11.6875 C-126.75123047 10.64916016 -126.56496094 9.61082031 -126.37304688 8.54101562 C-125.92108409 6.02624835 -125.46337974 3.51268386 -125 1 C-110.03091875 0.86914025 -95.06183364 0.73873003 -80.09274387 0.60884857 C-73.14166137 0.54852613 -66.19058018 0.48805901 -59.23950195 0.42724609 C-52.52867369 0.36853547 -45.81784197 0.3102349 -39.10700798 0.25218201 C-36.54943664 0.22999086 -33.99186649 0.20766337 -31.43429756 0.18519592 C-27.84625676 0.15369961 -24.25821203 0.12269242 -20.67016602 0.09179688 C-19.61783783 0.08244614 -18.56550964 0.0730954 -17.48129272 0.0634613 C-11.65392819 0.01385421 -5.82757696 -0.00886714 0 0 Z " fill="#FBB830" transform="translate(130,227)"/>
<path d="M0 0 C16.83 0 33.66 0 51 0 C51 3.63 51 7.26 51 11 C50.34 11 49.68 11 49 11 C49.020625 12.299375 49.04125 13.59875 49.0625 14.9375 C49.08399454 16.29165633 49.07148199 17.64756083 49 19 C48.505 19.495 48.505 19.495 48 20 C47.34 24.95 46.68 29.9 46 35 C29.17 35 12.34 35 -5 35 C-4 22 -4 22 0 0 Z " fill="#F8DD16" transform="translate(5,229)"/>
<path d="M0 0 C2 3 2 3 1.8125 5 C0.90059285 7.24469451 -0.18533754 8.42203265 -2 10 C-1.125 2.25 -1.125 2.25 0 0 Z " fill="#2A2D71" transform="translate(326,134)"/>
  </g>

</svg>
