<svg xmlns="http://www.w3.org/2000/svg"
     viewBox="0 0 38 24"
     width="38"
     height="24"
     role="img">

  <!-- Frame -->
  <path opacity=".07"
        d="M35 0H3C1.3 0 0 1.3 0 3v18c0 1.7 1.4 3 3 3h32c1.7 0 3-1.3 3-3V3c0-1.7-1.4-3-3-3z"/>
  <path fill="#fff"
        d="M35 1c1.1 0 2 .9 2 2v18c0 1.1-.9 2-2 2H3c-1.1 0-2-.9-2-2V3c0-1.1.9-2 2-2h32"/>

  <!-- Logo (perfectly centered) -->
  <g transform="translate(19 12) scale(0.32) translate(-51.5 -16)">
    <path d="M26.2256 0H19.3269V32H26.2256V0Z" fill="#202042"/>
    <path d="M35.5178 10.9299H28.6191V32H35.5178V10.9299Z" fill="#202042"/>
    <path d="M95.3388 21.1272L102.122 10.9299H95.2234L90.7492 17.6556V10.9299H83.8505V32H90.7492V21.1272H95.3388Z" fill="#202042"/>
    <path d="M48.0951 31.5427H48.0123L44.2718 10.9299H36.9163L41.5704 32H54.5364L59.1912 10.9299H51.8351L48.0951 31.5427Z" fill="#202042"/>
    <path d="M71.7928 31.5427H71.7095L67.9695 10.9299H60.6134L65.2681 32H78.2342L82.8889 10.9299H75.5328L71.7928 31.5427Z" fill="#202042"/>
    <path d="M35.5178 8.10352H28.6191V9.47332H35.5178V8.10352Z" fill="#202042"/>
    <path d="M6.8987 29.0006L12.4522 32H17.2639V27.1877L6.79193 21.4001V21.2049L17.2639 15.9078V8.37072L6.8987 13.71V0H0V32H6.8987V29.0006Z" fill="#202042"/>
  </g>

</svg>
