<svg xmlns="http://www.w3.org/2000/svg"
     viewBox="0 0 38 24"
     width="38"
     height="24"
     role="img">

  <!-- Frame -->
  <path opacity=".07"
        d="M35 0H3C1.3 0 0 1.3 0 3v18c0 1.7 1.4 3 3 3h32c1.7 0 3-1.3 3-3V3c0-1.7-1.4-3-3-3z"/>
  <path fill="#fff"
        d="M35 1c1.1 0 2 .9 2 2v18c0 1.1-.9 2-2 2H3c-1.1 0-2-.9-2-2V3c0-1.1.9-2 2-2h32"/>

  <!-- BIG SVG LOGO (perfectly centered) -->
  <g transform="translate(19 12) scale(0.015) translate(-1024 -355.5)">
    
 <path d="M0 0 C0.87646179 0.00182281 1.75292358 0.00364563 2.65594482 0.00552368 C16.08429655 0.05244176 29.11779441 0.63754485 42.3125 3.3125 C43.20453125 3.48410645 44.0965625 3.65571289 45.015625 3.83251953 C74.57348846 9.6068298 105.7967231 21.03796144 129.3125 40.3125 C132.34262292 22.5544506 132.34262292 22.5544506 134.91796875 4.7265625 C135.3125 2.3125 135.3125 2.3125 136.3125 0.3125 C161.7225 0.3125 187.1325 0.3125 213.3125 0.3125 C213.40097343 30.4445084 213.4747168 60.57644395 213.51676132 90.7085463 C213.52176309 94.28014438 213.52694048 97.85174218 213.53222656 101.42333984 C213.5332758 102.13426732 213.53432505 102.84519479 213.53540608 103.57766552 C213.552728 115.03176208 213.58421939 126.48577688 213.62111118 137.93982522 C213.65875103 149.725975 213.68078403 161.51208249 213.68885398 173.2982899 C213.69381097 179.90442805 213.70606524 186.51041547 213.73542023 193.11649704 C213.76291793 199.35618343 213.77087683 205.59561261 213.76493073 211.83535385 C213.76601581 214.10460313 213.7737621 216.37386258 213.7893219 218.64305878 C214.07647801 262.74882962 201.34367111 303.01744777 178.3125 340.3125 C177.30988583 341.97759537 176.30880001 343.64361892 175.3125 345.3125 C176.76775059 346.79469967 178.226799 348.27317139 179.6875 349.75 C180.90566406 350.98556641 180.90566406 350.98556641 182.1484375 352.24609375 C184.13598515 354.34684672 184.13598515 354.34684672 186.3125 355.3125 C186.3125 355.9725 186.3125 356.6325 186.3125 357.3125 C186.9725 357.3125 187.6325 357.3125 188.3125 357.3125 C188.3125 357.9725 188.3125 358.6325 188.3125 359.3125 C188.93125 359.56 189.55 359.8075 190.1875 360.0625 C192.66318687 361.51878639 193.26375002 362.69062506 194.3125 365.3125 C194.9725 365.3125 195.6325 365.3125 196.3125 365.3125 C196.3125 365.9725 196.3125 366.6325 196.3125 367.3125 C196.9725 367.3125 197.6325 367.3125 198.3125 367.3125 C199.8984375 368.921875 199.8984375 368.921875 201.6875 371.0625 C203.65007727 373.38153702 205.5713295 375.56469284 207.75 377.6875 C209.3125 379.3125 209.3125 379.3125 209.3125 381.3125 C209.9725 381.3125 210.6325 381.3125 211.3125 381.3125 C213.75497647 383.91780823 215.86217001 386.80371983 218.03076172 389.63916016 C218.92092956 390.80129547 219.81616072 391.9595629 220.71533203 393.11474609 C247.75143422 427.86011725 263.10546589 466.16031663 258.96875 510.74609375 C258.51808945 514.29504562 257.95919197 517.79433299 257.3125 521.3125 C257.02052734 523.06240234 257.02052734 523.06240234 256.72265625 524.84765625 C253.83158898 540.84261425 248.84816883 556.44403679 242.3125 571.3125 C241.99442383 572.04823242 241.67634766 572.78396484 241.34863281 573.54199219 C234.65293019 588.88551585 226.24016811 601.96954772 215.375 614.6875 C214.83133789 615.32461914 214.28767578 615.96173828 213.72753906 616.61816406 C213.21030273 617.2056543 212.69306641 617.79314453 212.16015625 618.3984375 C211.70648682 618.9145459 211.25281738 619.4306543 210.78540039 619.96240234 C209.09756165 621.50951792 207.3928792 622.378657 205.3125 623.3125 C205.3125 623.9725 205.3125 624.6325 205.3125 625.3125 C200.84191176 629.3125 200.84191176 629.3125 198.3125 629.3125 C198.3125 629.9725 198.3125 630.6325 198.3125 631.3125 C172.77986558 653.46942554 136.29063389 662.26060103 103.3125 660.3125 C58.04609501 656.07689494 22.76652125 631.35771502 -6.05078125 597.5390625 C-8.28759279 594.81563199 -10.4929562 592.07011754 -12.6875 589.3125 C-32.08375063 564.55968273 -32.08375063 564.55968273 -60.6875 553.3125 C-73.96832259 552.08250588 -87.59757016 554.61053244 -98.6875 562.3125 C-99.31011719 562.74175781 -99.93273438 563.17101562 -100.57421875 563.61328125 C-109.93999292 570.82553685 -114.68693587 582.83569123 -116.2175293 594.27319336 C-116.81141036 599.87540659 -116.895557 605.46440441 -116.96875 611.09375 C-117.0065005 613.33854183 -117.04426121 615.5833335 -117.08203125 617.828125 C-117.13591255 621.34177864 -117.18813097 624.855453 -117.23974609 628.36914062 C-117.29125782 631.77742124 -117.34853133 635.18556977 -117.40625 638.59375 C-117.41982544 639.65404419 -117.43340088 640.71433838 -117.4473877 641.8067627 C-117.46410522 642.77867554 -117.48082275 643.75058838 -117.49804688 644.75195312 C-117.51057495 645.6108313 -117.52310303 646.46970947 -117.53601074 647.35461426 C-117.6875 649.3125 -117.6875 649.3125 -118.6875 650.3125 C-121.4263842 650.40766211 -124.13997941 650.43804594 -126.87915039 650.42602539 C-127.73761063 650.42617142 -128.59607086 650.42631744 -129.48054504 650.4264679 C-132.33210738 650.42576847 -135.18360525 650.4179747 -138.03515625 650.41015625 C-140.00670842 650.40829218 -141.97826105 650.40686822 -143.94981384 650.40586853 C-149.14976267 650.40204251 -154.34968375 650.39221152 -159.54962158 650.38116455 C-164.85143661 650.37095222 -170.1532561 650.36637129 -175.45507812 650.36132812 C-185.86589763 650.35058933 -196.27669651 650.33351191 -206.6875 650.3125 C-208.94908916 645.09483024 -210.60385156 640.29206134 -211.75 634.75 C-211.91918945 633.93644043 -212.08837891 633.12288086 -212.26269531 632.28466797 C-215.01355775 618.29449187 -216.43669685 603.56352707 -215.6875 589.3125 C-215.63384277 588.23476318 -215.63384277 588.23476318 -215.57910156 587.13525391 C-214.45129384 566.92938488 -210.26375248 546.71167826 -201.6875 528.3125 C-200.86958984 526.53359375 -200.86958984 526.53359375 -200.03515625 524.71875 C-184.24685708 491.78170866 -156.5153124 466.2957035 -122.125 453.9375 C-108.97096756 449.46817624 -95.5965257 446.68295831 -81.6875 446.3125 C-80.68460938 446.28414063 -79.68171875 446.25578125 -78.6484375 446.2265625 C-75.6562533 446.18708777 -72.67875231 446.23144671 -69.6875 446.3125 C-68.65753906 446.32925781 -67.62757813 446.34601563 -66.56640625 446.36328125 C-23.98792598 448.11857785 15.01683324 472.85044626 43.3125 503.3125 C45.93793142 506.35518748 48.45798118 509.47090734 50.95654297 512.61816406 C53.83204501 516.21124728 56.76430018 519.7582186 59.6875 523.3125 C60.29505127 524.05516113 60.90260254 524.79782227 61.52856445 525.56298828 C62.10437256 526.26407715 62.68018066 526.96516602 63.2734375 527.6875 C63.78696777 528.31398438 64.30049805 528.94046875 64.82958984 529.5859375 C66.29000403 531.34594501 66.29000403 531.34594501 68.00244141 532.9140625 C69.3125 534.3125 69.3125 534.3125 69.3125 536.3125 C69.9725 536.3125 70.6325 536.3125 71.3125 536.3125 C71.3125 536.9725 71.3125 537.6325 71.3125 538.3125 C71.9725 538.3125 72.6325 538.3125 73.3125 538.3125 C73.3125 538.9725 73.3125 539.6325 73.3125 540.3125 C73.87839844 540.57289063 74.44429687 540.83328125 75.02734375 541.1015625 C77.51981863 542.42236116 79.6240135 543.98906208 81.875 545.6875 C92.04169226 552.7760671 102.11753085 554.70056996 114.3125 553.3125 C126.26464001 551.07561001 137.72433466 544.98512522 145.3125 535.3125 C150.16456372 528.13226982 153.91320179 520.64750278 156.3125 512.3125 C156.48910156 511.70599609 156.66570312 511.09949219 156.84765625 510.47460938 C160.95226337 494.62789402 160.23280337 474.56941293 154.3125 459.3125 C153.95027344 458.27867187 153.58804687 457.24484375 153.21484375 456.1796875 C147.49488395 441.01694662 137.20055215 427.29253529 122.3125 420.3125 C107.36516238 413.78814247 89.80393319 412.18833023 74.375 418.0625 C72.32817753 418.87734079 70.28983258 419.71009551 68.25390625 420.55175781 C62.46777445 422.81905996 56.37615471 424.04466812 50.3125 425.3125 C49.49491211 425.49586914 48.67732422 425.67923828 47.83496094 425.86816406 C16.97765213 432.57528782 -18.91016679 432.26000315 -49.6875 425.3125 C-51.11956787 424.99104004 -51.11956787 424.99104004 -52.58056641 424.66308594 C-72.14150163 420.10074932 -91.08503182 412.99523485 -108.6875 403.3125 C-109.30786133 402.97138184 -109.92822266 402.63026367 -110.56738281 402.27880859 C-120.91887172 396.50016931 -130.39226428 389.65343247 -139.6875 382.3125 C-140.28030762 381.85037109 -140.87311523 381.38824219 -141.48388672 380.91210938 C-142.92471478 379.76012159 -144.31200405 378.54175678 -145.6875 377.3125 C-145.6875 376.6525 -145.6875 375.9925 -145.6875 375.3125 C-146.54601563 374.94125 -146.54601563 374.94125 -147.421875 374.5625 C-150.03760611 373.11933801 -151.83523456 371.43033778 -153.9375 369.3125 C-154.64390625 368.61125 -155.3503125 367.91 -156.078125 367.1875 C-157.6875 365.3125 -157.6875 365.3125 -157.6875 363.3125 C-158.3475 363.3125 -159.0075 363.3125 -159.6875 363.3125 C-161.48001379 361.24537552 -163.1558528 359.17237209 -164.8125 357 C-165.30532471 356.3613501 -165.79814941 355.7227002 -166.3059082 355.06469727 C-167.77472025 353.15345183 -169.23275144 351.23446335 -170.6875 349.3125 C-171.42097656 348.34828125 -172.15445312 347.3840625 -172.91015625 346.390625 C-200.58988395 309.19083191 -212.96122593 263.35939217 -212.81787109 217.35351562 C-212.81250323 215.31372656 -212.81786276 213.27415755 -212.82421875 211.234375 C-212.84799169 174.47532898 -203.96091211 138.74794468 -186.6875 106.3125 C-186.37586914 105.71727539 -186.06423828 105.12205078 -185.74316406 104.50878906 C-173.90496495 82.04752873 -156.51057747 62.02716763 -136.6875 46.3125 C-136.17380859 45.90064453 -135.66011719 45.48878906 -135.13085938 45.06445312 C-127.34686901 38.83534123 -119.36234366 33.26173161 -110.6875 28.3125 C-110.06423828 27.9530127 -109.44097656 27.59352539 -108.79882812 27.22314453 C-89.31560333 16.09607982 -68.05589624 8.89710039 -46.1875 4.125 C-45.14021729 3.89248535 -45.14021729 3.89248535 -44.07177734 3.65527344 C-29.46872086 0.63258892 -14.86606446 -0.06450597 0 0 Z M-69.6875 133.3125 C-70.43515625 133.84101563 -71.1828125 134.36953125 -71.953125 134.9140625 C-72.81164063 135.60628906 -72.81164063 135.60628906 -73.6875 136.3125 C-73.6875 136.9725 -73.6875 137.6325 -73.6875 138.3125 C-74.3475 138.3125 -75.0075 138.3125 -75.6875 138.3125 C-87.04551169 150.27195427 -95.72593642 165.03563377 -100.4375 180.8125 C-100.63617676 181.47588379 -100.83485352 182.13926758 -101.03955078 182.82275391 C-104.09685905 193.66611201 -105.05123892 204.32186824 -105 215.5625 C-104.99508545 216.83939697 -104.9901709 218.11629395 -104.98510742 219.43188477 C-104.66702072 245.07293563 -95.98794533 267.60520918 -79.6875 287.3125 C-78.86765625 288.33472656 -78.0478125 289.35695313 -77.203125 290.41015625 C-61.57312067 308.44290969 -36.24155315 320.15308938 -12.6875 322.3125 C20.55618671 324.19602514 48.74338442 316.66332171 74 294.4375 C79.00813619 289.77893457 83.27229373 284.82187218 87.3125 279.3125 C87.82167969 278.65378906 88.33085938 277.99507812 88.85546875 277.31640625 C105.98001014 253.76442305 109.35172484 222.44145003 105.64428711 194.29492188 C101.24129809 167.9871435 85.16636758 142.98254329 63.8125 127.25 C23.92890516 99.09878863 -32.74783934 101.67038758 -69.6875 133.3125 Z " fill="#EF5A41" transform="translate(1312.6875,35.6875)"/>
<path d="M0 0 C1.21896973 0.09394043 2.43793945 0.18788086 3.69384766 0.28466797 C27.7914573 2.32274262 50.15214989 9.60465738 71.3125 21.3125 C71.94736328 21.65893555 72.58222656 22.00537109 73.23632812 22.36230469 C81.880161 27.12906015 89.42584623 32.56595485 96.80078125 39.125 C99.09701789 41.30900036 99.09701789 41.30900036 101.3125 42.3125 C101.3125 42.9725 101.3125 43.6325 101.3125 44.3125 C105.57337844 43.81421111 108.07562837 41.1263965 111.125 38.375 C129.34949254 22.58490028 151.11432155 11.77686721 174.3125 5.3125 C175.33561279 5.01738525 175.33561279 5.01738525 176.37939453 4.71630859 C218.98148459 -7.25827841 265.02071473 0.69717438 303.234375 21.93359375 C307.53706183 24.40192254 311.7287127 27.02802497 315.875 29.75 C316.8501355 30.38784424 316.8501355 30.38784424 317.8449707 31.03857422 C319.37388615 32.07347443 320.84968042 33.18610763 322.3125 34.3125 C322.3125 34.9725 322.3125 35.6325 322.3125 36.3125 C322.90289063 36.58578125 323.49328125 36.8590625 324.1015625 37.140625 C330.87755422 40.73214004 336.23403253 47.1381579 341.625 52.5 C342.54128174 53.40927246 342.54128174 53.40927246 343.47607422 54.33691406 C351.3125 62.20156748 351.3125 62.20156748 351.3125 65.3125 C351.9725 65.3125 352.6325 65.3125 353.3125 65.3125 C354.60595703 66.89453125 354.60595703 66.89453125 356.0703125 69.125 C356.87940063 70.35524902 356.87940063 70.35524902 357.70483398 71.61035156 C358.27661377 72.50206055 358.84839355 73.39376953 359.4375 74.3125 C360.02281494 75.22225586 360.60812988 76.13201172 361.21118164 77.06933594 C366.17567874 84.89799232 370.58219049 92.82697463 374.3125 101.3125 C374.5811084 101.91884277 374.8497168 102.52518555 375.12646484 103.14990234 C378.90365926 111.88568388 381.36790438 120.89074756 383.625 130.125 C384.00712646 131.68142212 384.00712646 131.68142212 384.39697266 133.26928711 C384.63335449 134.27999268 384.86973633 135.29069824 385.11328125 136.33203125 C385.32122314 137.21995361 385.52916504 138.10787598 385.7434082 139.02270508 C387.24020103 147.67533626 387.45725027 156.35172395 387.43275452 165.11332703 C387.43360894 166.24978615 387.43446337 167.38624528 387.43534368 168.55714256 C387.43698113 172.33718372 387.43150568 176.11717977 387.42602539 179.8972168 C387.42518496 182.61801684 387.42585808 185.33881603 387.4264679 188.05961609 C387.4269904 193.90295052 387.42387222 199.74627372 387.41823006 205.58960533 C387.41007794 214.03791879 387.40749604 222.48622686 387.40624207 230.93454383 C387.40405737 244.64378424 387.39741309 258.35301868 387.38793945 272.06225586 C387.37875026 285.37377899 387.37167681 298.6853005 387.36743164 311.99682617 C387.36716892 312.81834699 387.36690619 313.63986781 387.36663551 314.48628321 C387.3653304 318.60790988 387.36406671 322.72953657 387.36282361 326.85116327 C387.35246912 361.00494648 387.33486667 395.15872259 387.3125 429.3125 C373.50909113 429.33583058 359.7056853 429.35341354 345.90226078 429.36431217 C339.49350872 429.36954166 333.08476985 429.3766405 326.67602539 429.38793945 C320.49690559 429.39876599 314.31779852 429.40477634 308.13866997 429.40737724 C305.7754439 429.40923192 303.41221856 429.41285332 301.04899788 429.41823006 C297.75148104 429.42543738 294.45401753 429.42649107 291.15649414 429.42602539 C290.16891113 429.42962067 289.18132812 429.43321594 288.16381836 429.43692017 C287.27054337 429.4355455 286.37726837 429.43417084 285.45692444 429.43275452 C284.67616578 429.43367631 283.89540712 429.4345981 283.09098911 429.43554783 C281.3125 429.3125 281.3125 429.3125 280.3125 428.3125 C280.21361205 426.89027764 280.18403704 425.46317151 280.18221474 424.03751659 C280.17859039 423.10937592 280.17496604 422.18123524 280.17123187 421.22496909 C280.17283424 419.67745529 280.17283424 419.67745529 280.17446899 418.09867859 C280.17164771 417.01189892 280.16882643 415.92511925 280.16591966 414.80540687 C280.15753056 411.13287813 280.15623171 407.46037936 280.15478516 403.7878418 C280.15011991 401.16680312 280.14497683 398.54576526 280.13938904 395.92472839 C280.12784403 390.26350254 280.11960947 384.60227969 280.11326981 378.94104576 C280.10295248 369.98613391 280.08238882 361.03125929 280.06015015 352.07637024 C280.05266946 349.0131141 280.04525578 345.9498578 280.03786278 342.88660145 C280.03601221 342.12091694 280.03416165 341.35523243 280.032255 340.56634536 C280.01131096 331.84232958 279.9924935 323.11830966 279.97460938 314.39428711 C279.97297119 313.59651558 279.97133301 312.79874405 279.96964519 311.97679762 C279.94340477 299.0713207 279.92473858 286.16584094 279.90801747 273.2603487 C279.89056928 260.00744016 279.86169056 246.75458748 279.8231281 233.50172359 C279.79977657 225.33065188 279.78573789 217.1596713 279.78380047 208.98856596 C279.78168379 203.37950009 279.76869377 197.77052455 279.74732114 192.16149928 C279.73534592 188.92964244 279.72974953 185.69799951 279.73403358 182.46611786 C279.7379469 178.95159814 279.72341267 175.43760216 279.70449829 171.92314148 C279.71002799 170.91600355 279.71555768 169.90886563 279.72125494 168.87120837 C279.57240775 152.75996498 273.76263144 138.00250096 262.48046875 126.41796875 C261.76503906 125.72316406 261.04960937 125.02835937 260.3125 124.3125 C259.77238281 123.75175781 259.23226563 123.19101563 258.67578125 122.61328125 C248.16928146 112.53021722 232.99412699 108.36724627 218.8125 107.9375 C205.24995387 108.34848625 191.50280752 112.04442562 181.03125 121.0390625 C178.3125 123.3125 178.3125 123.3125 176.3125 123.3125 C176.3125 123.9725 176.3125 124.6325 176.3125 125.3125 C175.6525 125.3125 174.9925 125.3125 174.3125 125.3125 C174.05082031 125.8796875 173.78914063 126.446875 173.51953125 127.03125 C172.2146879 129.4973617 170.67586506 131.58296777 169 133.8125 C160.79545187 145.41851704 158.00475804 157.58769627 158.04075623 171.56237793 C158.03566939 172.66375422 158.03058255 173.76513051 158.02534157 174.89988184 C158.01073223 178.57326448 158.01014834 182.24651227 158.00952148 185.91992188 C158.00185705 188.55999425 157.99340444 191.20005299 157.98394775 193.84011841 C157.96513202 199.51541479 157.95338807 205.1906898 157.94640923 210.86601257 C157.93622021 219.07254899 157.91414578 227.27902078 157.88902331 235.48552352 C157.84848237 248.80316096 157.81599455 262.12080457 157.78930664 275.43847656 C157.78691069 276.63267596 157.78691069 276.63267596 157.78446633 277.85100061 C157.78206798 279.04675447 157.78206798 279.04675447 157.77962118 280.26666498 C157.75689754 291.58761256 157.73226501 302.90855383 157.70532227 314.22949219 C157.70247805 315.42586954 157.70247805 315.42586954 157.69957637 316.64641613 C157.66784428 329.92549113 157.6321037 343.20455358 157.59428078 356.48361254 C157.57120808 364.67518518 157.5522658 372.86674923 157.53861404 381.05834311 C157.52799554 387.3217225 157.51259003 393.58508121 157.49542236 399.84844589 C157.48924015 402.42489643 157.48479591 405.00135177 157.48216438 407.57780838 C157.47838327 411.07806455 157.46859712 414.57825262 157.45726013 418.07849121 C157.45764626 419.11221344 157.4580324 420.14593566 157.45843023 421.2109828 C157.45418918 422.14097357 157.44994814 423.07096435 157.44557858 424.02913666 C157.44400468 424.83799867 157.44243078 425.64686069 157.44080919 426.48023367 C157.3125 428.3125 157.3125 428.3125 156.3125 429.3125 C154.93373975 429.4078919 153.55013084 429.43438622 152.16807556 429.43275452 C151.27480057 429.43412918 150.38152557 429.43550385 149.46118164 429.43692017 C148.47359863 429.43332489 147.48601562 429.42972961 146.46850586 429.42602539 C144.9174691 429.42624443 144.9174691 429.42624443 143.33509827 429.4264679 C139.89915914 429.42576827 136.46327347 429.41797358 133.02734375 429.41015625 C130.65222707 429.40829225 128.27711 429.40686826 125.9019928 429.40586853 C119.63673856 429.40204197 113.37150733 429.3922105 107.10626221 429.38116455 C100.7186311 429.3709534 94.33099629 429.36637155 87.94335938 429.36132812 C75.39972974 429.35058836 62.85611609 429.33370127 50.3125 429.3125 C50.31152319 428.75957982 50.31054638 428.20665963 50.30953997 427.63698429 C50.25118496 394.81872364 50.1773257 362.00053842 50.08351372 329.18236059 C50.07224644 325.23607599 50.06110784 321.28979104 50.05004883 317.34350586 C50.0467433 316.16512439 50.0467433 316.16512439 50.043371 314.96293724 C50.00806172 302.26635649 49.98316171 289.56977578 49.96215298 276.87316423 C49.94034006 263.83157959 49.90723783 250.79005829 49.86379844 237.74852759 C49.83737601 229.71035606 49.8196115 221.67226338 49.81315396 213.63405062 C49.80724388 207.45566468 49.78557711 201.27742238 49.75822449 195.0990963 C49.74947072 192.57530714 49.74571613 190.0514946 49.74749184 187.52769089 C49.75892983 163.75796859 47.91727176 143.64063483 31.359375 125.12890625 C19.96714298 113.97582414 3.84077962 108.38429834 -11.875 108 C-30.24322969 108.58389075 -46.04847401 116.05391391 -58.6875 129.3125 C-69.33081885 142.8847942 -72.99873618 158.77738974 -72.9659729 175.69572449 C-72.9717653 176.78726454 -72.9775577 177.87880458 -72.98352563 179.0034216 C-73.00042146 182.63146211 -73.00339315 186.25937461 -73.00634766 189.88745117 C-73.01565301 192.49988106 -73.02582259 195.112308 -73.03678894 197.72473145 C-73.05897893 203.33396559 -73.07404166 208.94318175 -73.08415604 214.55245018 C-73.09878988 222.66233626 -73.12433965 230.77215961 -73.15248732 238.88200871 C-73.19787017 252.04217208 -73.23452 265.20234453 -73.265625 278.36254883 C-73.29584549 291.14055981 -73.33021175 303.91854864 -73.37011719 316.6965332 C-73.37257874 317.48519707 -73.37504028 318.27386094 -73.37757643 319.08642372 C-73.38995171 323.04322584 -73.40240811 327.00002769 -73.41490483 330.95682943 C-73.51834515 363.74202288 -73.60759028 396.52724062 -73.6875 429.3125 C-87.49090887 429.33583058 -101.2943147 429.35341354 -115.09773922 429.36431217 C-121.50649128 429.36954166 -127.91523015 429.3766405 -134.32397461 429.38793945 C-140.50309441 429.39876599 -146.68220148 429.40477634 -152.86133003 429.40737724 C-155.2245561 429.40923192 -157.58778144 429.41285332 -159.95100212 429.41823006 C-163.24851896 429.42543738 -166.54598247 429.42649107 -169.84350586 429.42602539 C-170.83108887 429.42962067 -171.81867188 429.43321594 -172.83618164 429.43692017 C-173.72945663 429.4355455 -174.62273163 429.43417084 -175.54307556 429.43275452 C-176.71421355 429.43413721 -176.71421355 429.43413721 -177.90901089 429.43554783 C-179.6875 429.3125 -179.6875 429.3125 -180.6875 428.3125 C-180.78772305 426.87116255 -180.81856357 425.42493972 -180.82172108 423.98012543 C-180.82617892 423.03910146 -180.83063676 422.0980775 -180.83522969 421.12853765 C-180.83504533 420.08238366 -180.83486097 419.03622966 -180.83467102 417.95837402 C-180.83834771 416.8562654 -180.8420244 415.75415677 -180.8458125 414.61865091 C-180.85690101 410.89354914 -180.86070211 407.16847522 -180.86450195 403.44335938 C-180.87076341 400.78430005 -180.87739708 398.12524374 -180.88441467 395.46618652 C-180.90421884 387.4545423 -180.91425845 379.44289673 -180.92314246 371.43123412 C-180.92752617 367.65189389 -180.93289344 363.87255507 -180.93813133 360.09321594 C-180.95516118 347.51220745 -180.96964649 334.93119984 -180.97688007 322.35018158 C-180.97878984 319.08176167 -180.98071017 315.81334176 -180.98266602 312.54492188 C-180.98314976 311.73261669 -180.9836335 310.9203115 -180.9841319 310.08339101 C-180.99239861 296.97971739 -181.01767027 283.87613608 -181.05024669 270.7725026 C-181.08347702 257.29469051 -181.10134388 243.81692497 -181.10452431 230.33907175 C-181.10667667 222.78227949 -181.11523416 215.22562107 -181.14098549 207.66886902 C-181.1629132 201.2192011 -181.17063716 194.76969941 -181.16101871 188.31999844 C-181.15653427 185.03986609 -181.16028191 181.76013961 -181.17778015 178.4800415 C-181.43508223 127.3259274 -164.78605683 83.61227076 -129.3125 46.625 C-115.15762615 32.87819459 -98.48534248 22.60673264 -80.6875 14.3125 C-79.21410156 13.62027344 -79.21410156 13.62027344 -77.7109375 12.9140625 C-53.49582983 2.20484587 -26.33666574 -2.04358581 0 0 Z " fill="#EF5A41" transform="translate(216.6875,36.6875)"/>
<path d="M0 0 C0.87140625 0.74894531 1.7428125 1.49789062 2.640625 2.26953125 C18.92824032 16.48278047 31.22315728 33.38962247 42 52 C42.37398926 52.64195312 42.74797852 53.28390625 43.13330078 53.9453125 C73.71062041 107.00056022 76.24033255 172.22000682 60.6875 230.3125 C53.42116885 255.91573387 40.85234034 280.19296178 23.88671875 300.703125 C21.30117502 303.85074346 18.87636759 307.11502216 16.4453125 310.3828125 C15.96835937 310.91648437 15.49140625 311.45015625 15 312 C14.34 312 13.68 312 13 312 C13 312.66 13 313.32 13 314 C12.34 314 11.68 314 11 314 C11 314.66 11 315.32 11 316 C10.34 316 9.68 316 9 316 C9 316.66 9 317.32 9 318 C8.34 318 7.68 318 7 318 C7 318.66 7 319.32 7 320 C6.34 320 5.68 320 5 320 C5 320.66 5 321.32 5 322 C2.03566084 324.75641958 -1.18089704 327.20876376 -4.36181641 329.71044922 C-5.97073279 330.97696134 -7.5694067 332.25561523 -9.16796875 333.53515625 C-16.43155203 339.29462487 -23.93803629 344.40043289 -32 349 C-32.62326172 349.3594873 -33.24652344 349.71897461 -33.88867188 350.08935547 C-55.22783099 362.27636284 -78.78825018 370.02442698 -102.9375 374.3125 C-103.83581543 374.47202148 -104.73413086 374.63154297 -105.65966797 374.79589844 C-117.69480193 376.78238621 -129.78131844 377.16831684 -141.95898438 377.13037109 C-143.99877344 377.12500323 -146.03834245 377.13036276 -148.078125 377.13671875 C-197.68861159 377.16880302 -246.68670166 361.04104705 -284.765625 328.875 C-286.96234741 326.97933844 -286.96234741 326.97933844 -289.296875 325.375 C-290.13992188 324.694375 -290.13992188 324.694375 -291 324 C-291 323.34 -291 322.68 -291 322 C-292.32 321.34 -293.64 320.68 -295 320 C-295 319.34 -295 318.68 -295 318 C-295.66 318 -296.32 318 -297 318 C-297 317.34 -297 316.68 -297 316 C-297.66 316 -298.32 316 -299 316 C-299 315.34 -299 314.68 -299 314 C-299.66 314 -300.32 314 -301 314 C-301 313.34 -301 312.68 -301 312 C-301.66 312 -302.32 312 -303 312 C-306.2298036 308.53120459 -309.080458 304.73148563 -312 301 C-312.75152344 300.05125 -313.50304687 299.1025 -314.27734375 298.125 C-333.58058264 273.15631138 -346.47296959 243.25736601 -352.75 212.4375 C-352.94859619 211.47030029 -353.14719238 210.50310059 -353.35180664 209.5065918 C-356.18261421 194.86761902 -357.33973611 180.28889983 -357.26074219 165.39550781 C-357.25000177 163.00039384 -357.26073403 160.60602942 -357.2734375 158.2109375 C-357.28814069 143.25283089 -355.82937636 128.54711393 -352.875 113.875 C-352.66544678 112.8336792 -352.45589355 111.7923584 -352.23999023 110.71948242 C-349.78621448 99.15987781 -346.116067 88.06380002 -342 77 C-341.74637695 76.31405762 -341.49275391 75.62811523 -341.23144531 74.92138672 C-334.77526899 57.84302466 -324.98668676 42.18640373 -314.15405273 27.58374023 C-313.06179205 26.08479903 -312.02879439 24.54319158 -311 23 C-310.34 23 -309.68 23 -309 23 C-308.77699219 22.45988281 -308.55398438 21.91976562 -308.32421875 21.36328125 C-306.5746754 18.24093986 -304.24809134 15.77809464 -301.8125 13.1875 C-301.31274658 12.6519751 -300.81299316 12.1164502 -300.2980957 11.56469727 C-299.30702322 10.50628124 -298.31352297 9.45013229 -297.31738281 8.39648438 C-296.27243939 7.28879787 -295.23951442 6.16977557 -294.2109375 5.046875 C-257.89348198 -33.3192575 -201.38608756 -51.16243744 -149.95800781 -52.9453125 C-94.7585972 -53.70799866 -41.61700324 -36.82774493 0 0 Z M-177 60 C-178.21042969 60.350625 -179.42085937 60.70125 -180.66796875 61.0625 C-204.45722624 68.66661338 -225.38674404 87.02144897 -237 109 C-240.13736304 115.49329017 -242.68422946 122.17536016 -245 129 C-245.24153809 129.6997998 -245.48307617 130.39959961 -245.73193359 131.12060547 C-252.12638449 150.65682122 -251.81531648 177.67582624 -245 197 C-244.78569336 197.62922363 -244.57138672 198.25844727 -244.35058594 198.90673828 C-239.62539514 212.57677715 -232.66921883 225.20038689 -223 236 C-222.20078125 236.89332031 -221.4015625 237.78664063 -220.578125 238.70703125 C-202.29871368 258.041024 -176.57835013 269.1945985 -150.09765625 270.21484375 C-118.97487208 270.99456775 -91.59869034 261.5853008 -68.68798828 240.19042969 C-49.73358601 221.86392709 -38.3701923 195.67375517 -37.83203125 169.328125 C-37.64082794 153.54883039 -37.64082794 153.54883039 -40 138 C-40.22598877 137.04915527 -40.22598877 137.04915527 -40.45654297 136.07910156 C-46.79420676 110.25357821 -61.90532751 87.03400956 -84.375 72.3125 C-103.00646566 61.02938863 -121.76787252 55.59591464 -143.5625 55.625 C-144.22096924 55.62521149 -144.87943848 55.62542297 -145.55786133 55.62564087 C-156.55751112 55.66080215 -166.52165215 56.713102 -177 60 Z " fill="#EF5A41" transform="translate(996,89)"/>
<path d="M0 0 C4.89414374 0.72987759 9.06719277 2.09913092 13.5625 4.125 C14.26141357 4.43630859 14.96032715 4.74761719 15.68041992 5.06835938 C34.58866664 13.61436244 51.50494372 24.87149646 66.734375 38.921875 C68.8017788 40.81818331 70.91750093 42.63029606 73.0625 44.4375 C77.77524698 48.54308326 82.12552971 53.09413137 86 58 C86 58.66 86 59.32 86 60 C86.66 60 87.32 60 88 60 C89.26171875 61.38256836 89.26171875 61.38256836 90.6875 63.33984375 C91.21625732 64.06397461 91.74501465 64.78810547 92.28979492 65.53417969 C92.8541626 66.32727539 93.41853027 67.12037109 94 67.9375 C94.58305908 68.75508789 95.16611816 69.57267578 95.7668457 70.41503906 C114.73671222 97.36278977 127.8667974 128.35307617 133 161 C133.17515137 162.08152344 133.35030273 163.16304687 133.53076172 164.27734375 C135.29038382 176.45813547 135.4002204 188.58390942 135.375 200.875 C135.3737915 201.96259613 135.37258301 203.05019226 135.37133789 204.17074585 C135.32227775 220.43433338 134.8778904 236.12626049 131 252 C130.72623535 253.13050781 130.4524707 254.26101563 130.17041016 255.42578125 C122.30696953 286.89659186 108.83332093 315.30337439 89 340.9375 C88.53094238 341.54746826 88.06188477 342.15743652 87.57861328 342.78588867 C86.43504051 344.23100994 85.22327485 345.62169206 84 347 C83.34 347 82.68 347 82 347 C81.78859375 347.53496094 81.5771875 348.06992187 81.359375 348.62109375 C79.47832217 351.9129362 76.92412932 354.41581373 74.25 357.0625 C73.67145264 357.63540771 73.09290527 358.20831543 72.49682617 358.79858398 C53.50234299 377.27645405 25.09095466 398.47819621 -1.4765625 403.46484375 C-4.15020947 403.93753908 -4.15020947 403.93753908 -7.02734375 405.37109375 C-12.3072708 407.7194707 -17.94568903 408.80187011 -23.5625 410.0625 C-24.73055176 410.32635498 -25.89860352 410.59020996 -27.10205078 410.86206055 C-46.5943779 415.19383972 -66.04463514 416.45120044 -86 416 C-86.68787598 415.98743164 -87.37575195 415.97486328 -88.08447266 415.96191406 C-143.89320597 414.73973398 -197.02466983 392.21870237 -235.85546875 352.0859375 C-247.42994966 339.85208652 -256.51238759 326.48937069 -265 312 C-265.53560547 311.1037793 -265.53560547 311.1037793 -266.08203125 310.18945312 C-266.98530071 308.67620687 -267.86861731 307.1510978 -268.75 305.625 C-269.21921875 304.81289063 -269.6884375 304.00078125 -270.171875 303.1640625 C-271.1757043 300.54084818 -271.02158026 299.58648707 -270 297 C-268.35205078 295.81494141 -268.35205078 295.81494141 -266.1953125 294.8515625 C-265.39416016 294.48893311 -264.59300781 294.12630371 -263.76757812 293.75268555 C-262.89552734 293.38054932 -262.02347656 293.00841309 -261.125 292.625 C-260.22458984 292.2328833 -259.32417969 291.8407666 -258.39648438 291.43676758 C-211.0095509 271.24930474 -158.36038745 271.52071199 -110.4375 289.75 C-82.37559832 301.46782229 -55.08001486 320.06164803 -36 344 C-34.88625 345.35738281 -34.88625 345.35738281 -33.75 346.7421875 C-21.26788598 362.23457713 -11.77694363 379.74457656 -4 398 C-3.67543755 372.93764703 -3.36488801 347.87512993 -3.0625 322.8125 C-3.04520647 321.38239523 -3.04520647 321.38239523 -3.02756357 319.92339945 C-2.44275048 271.53561939 -1.94268664 223.14851204 -1.6796875 174.7578125 C-1.67411827 173.73653723 -1.66854904 172.71526197 -1.66281104 171.66303897 C-1.5496671 150.81003007 -1.45069646 129.95697159 -1.36529446 109.10383129 C-1.32795473 100.00540788 -1.28797231 90.90699735 -1.24609375 81.80859375 C-1.24219328 80.95047317 -1.23829281 80.09235259 -1.23427415 79.20822835 C-1.11282987 52.79765049 -0.82030407 26.39974807 0 0 Z " fill="#D44E3A" transform="translate(1854,50)"/>
<path d="M0 0 C1.01457275 0.00054382 2.02914551 0.00108765 3.07446289 0.00164795 C27.90285783 0.0627655 53.54300029 2.38073208 76.625 12.375 C76.01222388 15.33675123 75.37127478 16.75558783 73.625 19.375 C72.965 19.375 72.305 19.375 71.625 19.375 C71.23646851 20.24680908 71.23646851 20.24680908 70.84008789 21.13623047 C69.53231606 23.54576788 68.08030761 25.22089109 66.18359375 27.1953125 C65.51779297 27.89527344 64.85199219 28.59523438 64.16601562 29.31640625 C63.12477539 30.39728516 63.12477539 30.39728516 62.0625 31.5 C60.68416169 32.93815539 59.30776043 34.37817056 57.93359375 35.8203125 C57.32314209 36.45469238 56.71269043 37.08907227 56.08374023 37.74267578 C54.53983679 39.32654375 54.53983679 39.32654375 53.625 41.375 C52.965 41.375 52.305 41.375 51.625 41.375 C51.36146729 41.96071777 51.09793457 42.54643555 50.82641602 43.14990234 C49.57397158 45.46950782 48.22183426 47.07704631 46.40234375 48.9765625 C45.78166016 49.63140625 45.16097656 50.28625 44.52148438 50.9609375 C43.87501953 51.63382813 43.22855469 52.30671875 42.5625 53 C41.27791865 54.34441814 39.99526898 55.69068547 38.71484375 57.0390625 C38.14628662 57.63154785 37.57772949 58.2240332 36.99194336 58.83447266 C35.53116037 60.34673979 35.53116037 60.34673979 34.625 62.375 C33.965 62.375 33.305 62.375 32.625 62.375 C32.35494141 62.96724365 32.08488281 63.5594873 31.80664062 64.16967773 C30.63284859 66.36035201 29.42708798 67.86828162 27.71875 69.66015625 C27.14455322 70.26786865 26.57035645 70.87558105 25.97875977 71.50170898 C25.36701904 72.14052002 24.75527832 72.77933105 24.125 73.4375 C22.85232189 74.78334118 21.58018991 76.12969901 20.30859375 77.4765625 C19.68194824 78.13817383 19.05530273 78.79978516 18.40966797 79.48144531 C13.2413493 84.96509505 8.18597797 90.55646186 3.25 96.25 C-0.48951973 100.56345082 -4.38538892 104.73093194 -8.28857422 108.89599609 C-10.53574655 111.30860442 -12.54166484 113.62499726 -14.375 116.375 C-15.035 116.375 -15.695 116.375 -16.375 116.375 C-16.64739502 116.96958008 -16.91979004 117.56416016 -17.20043945 118.17675781 C-18.34529488 120.31940556 -19.50144698 121.79506637 -21.16796875 123.546875 C-21.71187256 124.12429443 -22.25577637 124.70171387 -22.81616211 125.29663086 C-23.39245361 125.89999268 -23.96874512 126.50335449 -24.5625 127.125 C-25.75606101 128.39112382 -26.94877825 129.65804361 -28.140625 130.92578125 C-28.70845703 131.5285791 -29.27628906 132.13137695 -29.86132812 132.75244141 C-31.55625369 134.56929226 -33.19621654 136.4254474 -34.8125 138.3125 C-38.2230511 142.27010692 -41.80192803 146.06483461 -45.375 149.875 C-49.53210024 154.30852041 -53.64678684 158.75735197 -57.61328125 163.36328125 C-60.41537983 166.56301688 -63.30666851 169.6810334 -66.18603516 172.81103516 C-69.85928748 176.80599552 -73.49668312 180.83172376 -77.12109375 184.87109375 C-79.56950473 187.59107891 -82.03400079 190.29595561 -84.5 193 C-87.28312892 196.05631949 -90.04479803 199.12457248 -92.75 202.25 C-96.51590992 206.59528068 -100.44297006 210.79059942 -104.37646484 214.98388672 C-107.20040328 217.94278116 -107.20040328 217.94278116 -109.375 221.375 C-110.035 221.375 -110.695 221.375 -111.375 221.375 C-111.375 222.035 -111.375 222.695 -111.375 223.375 C-112.035 223.375 -112.695 223.375 -113.375 223.375 C-113.6428833 223.96506836 -113.9107666 224.55513672 -114.18676758 225.16308594 C-115.38673483 227.39684458 -116.64112013 228.93773425 -118.38671875 230.765625 C-119.27073364 231.69991333 -119.27073364 231.69991333 -120.17260742 232.65307617 C-120.79627197 233.30381104 -121.41993652 233.9545459 -122.0625 234.625 C-123.34464379 235.97962334 -124.62590521 237.33508243 -125.90625 238.69140625 C-126.5146875 239.33480957 -127.123125 239.97821289 -127.75 240.64111328 C-130.09761295 243.14603323 -132.34590396 245.72800641 -134.58203125 248.33203125 C-137.56412843 251.72993282 -140.65010675 255.03422971 -143.7331543 258.34057617 C-146.35748136 261.13831897 -146.35748136 261.13831897 -148.375 264.375 C-149.035 264.375 -149.695 264.375 -150.375 264.375 C-150.375 265.035 -150.375 265.695 -150.375 266.375 C-151.035 266.375 -151.695 266.375 -152.375 266.375 C-152.63853271 266.96071777 -152.90206543 267.54643555 -153.17358398 268.14990234 C-154.42602842 270.46950782 -155.77816574 272.07704631 -157.59765625 273.9765625 C-158.52868164 274.95882812 -158.52868164 274.95882812 -159.47851562 275.9609375 C-160.12498047 276.63382812 -160.77144531 277.30671875 -161.4375 278 C-162.72208135 279.34441814 -164.00473102 280.69068547 -165.28515625 282.0390625 C-165.85371338 282.63154785 -166.42227051 283.2240332 -167.00805664 283.83447266 C-168.46883963 285.34673979 -168.46883963 285.34673979 -169.375 287.375 C-170.035 287.375 -170.695 287.375 -171.375 287.375 C-171.63474609 287.95693115 -171.89449219 288.5388623 -172.16210938 289.13842773 C-173.46109146 291.53375279 -174.89667896 293.19756317 -176.78125 295.16015625 C-177.77318359 296.20333008 -177.77318359 296.20333008 -178.78515625 297.26757812 C-179.47480469 297.98365234 -180.16445312 298.69972656 -180.875 299.4375 C-182.24151402 300.86403847 -183.60617699 302.29235301 -184.96875 303.72265625 C-185.57396484 304.35179932 -186.17917969 304.98094238 -186.80273438 305.62915039 C-188.55993061 307.49572398 -188.55993061 307.49572398 -190.375 310.375 C-191.695 310.375 -193.015 310.375 -194.375 310.375 C-208.81361392 281.27900529 -213.61006898 247.82394858 -213.5625 215.6875 C-213.56222809 214.98945251 -213.56195618 214.29140503 -213.56167603 213.57220459 C-213.5417368 202.39124489 -212.99936818 191.44390891 -211.375 180.375 C-211.18979312 178.9414464 -211.00490049 177.50785217 -210.8203125 176.07421875 C-206.27659254 143.26702042 -192.6235811 112.74409972 -174.375 85.375 C-173.93494629 84.71306641 -173.49489258 84.05113281 -173.04150391 83.36914062 C-171.87405965 81.66560324 -170.63019566 80.01495413 -169.375 78.375 C-168.715 78.375 -168.055 78.375 -167.375 78.375 C-167.00375 77.54742187 -167.00375 77.54742187 -166.625 76.703125 C-165.13265526 73.92363293 -163.33827477 71.5935293 -161.375 69.125 C-160.67375 68.23296875 -159.9725 67.3409375 -159.25 66.421875 C-158.63125 65.74640625 -158.0125 65.0709375 -157.375 64.375 C-156.715 64.375 -156.055 64.375 -155.375 64.375 C-155.375 63.715 -155.375 63.055 -155.375 62.375 C-154.715 62.375 -154.055 62.375 -153.375 62.375 C-153.12105469 61.78460938 -152.86710937 61.19421875 -152.60546875 60.5859375 C-151.23993092 58.13230445 -149.83408316 56.79655094 -147.6875 55 C-146.97980469 54.40316406 -146.27210937 53.80632812 -145.54296875 53.19140625 C-144.82753906 52.59199219 -144.11210938 51.99257812 -143.375 51.375 C-142.71113281 50.78589844 -142.04726562 50.19679687 -141.36328125 49.58984375 C-140.74839844 49.04457031 -140.13351562 48.49929687 -139.5 47.9375 C-138.94570312 47.44378906 -138.39140625 46.95007813 -137.8203125 46.44140625 C-136.375 45.375 -136.375 45.375 -134.375 45.375 C-134.375 44.715 -134.375 44.055 -134.375 43.375 C-133.00830078 42.20507812 -133.00830078 42.20507812 -131.0703125 40.90625 C-130.35125732 40.42260986 -129.63220215 39.93896973 -128.89135742 39.44067383 C-128.10220947 38.92400146 -127.31306152 38.4073291 -126.5 37.875 C-125.68571533 37.33963623 -124.87143066 36.80427246 -124.0324707 36.25268555 C-101.54744716 21.65008146 -78.3901151 11.86236102 -52.375 5.375 C-51.64635742 5.19211426 -50.91771484 5.00922852 -50.16699219 4.82080078 C-33.53897148 0.73339539 -17.03557816 -0.03438794 0 0 Z " fill="#EF5A41" transform="translate(1775.375,35.625)"/>
<path d="M0 0 C7.41482067 6.60481602 14.79654105 13.21695659 21 21 C21.7425 21.90492188 22.485 22.80984375 23.25 23.7421875 C34.13342715 37.25033954 42.68558274 52.30911895 50 68 C50.47824219 69.01578125 50.95648437 70.0315625 51.44921875 71.078125 C54.22024399 77.37507272 54.22024399 77.37507272 53.28515625 80.02832031 C51.66825179 82.50896629 50.66329323 82.79844721 47.8359375 83.5625 C46.97339355 83.80009033 46.11084961 84.03768066 45.22216797 84.2824707 C44.28260254 84.51925537 43.34303711 84.75604004 42.375 85 C41.39805176 85.25418701 40.42110352 85.50837402 39.41455078 85.77026367 C21.79320009 90.20432115 4.15940047 92.68607419 -14 93 C-15.2890625 93.02835938 -16.578125 93.05671875 -17.90625 93.0859375 C-21.60865396 93.1254931 -25.29837104 93.08369562 -29 93 C-29.68787598 92.98743164 -30.37575195 92.97486328 -31.08447266 92.96191406 C-86.89320597 91.73973398 -140.02466983 69.21870237 -178.85546875 29.0859375 C-190.42994966 16.85208652 -199.51238759 3.48937069 -208 -11 C-208.35707031 -11.59748047 -208.71414063 -12.19496094 -209.08203125 -12.81054688 C-209.98530071 -14.32379313 -210.86861731 -15.8489022 -211.75 -17.375 C-212.21921875 -18.18710937 -212.6884375 -18.99921875 -213.171875 -19.8359375 C-214.1757043 -22.45915182 -214.02158026 -23.41351293 -213 -26 C-211.35205078 -27.18505859 -211.35205078 -27.18505859 -209.1953125 -28.1484375 C-208.39416016 -28.51106689 -207.59300781 -28.87369629 -206.76757812 -29.24731445 C-205.89552734 -29.61945068 -205.02347656 -29.99158691 -204.125 -30.375 C-203.22458984 -30.7671167 -202.32417969 -31.1592334 -201.39648438 -31.56323242 C-134.33331132 -60.13303457 -54.88560048 -48.19785925 0 0 Z " fill="#B83B33" transform="translate(1797,373)"/>
  </g>

</svg>
