<svg xmlns="http://www.w3.org/2000/svg"
     viewBox="0 0 38 24"
     width="38"
     height="24"
     role="img">

  <!-- Frame -->
  <path opacity=".07"
        d="M35 0H3C1.3 0 0 1.3 0 3v18c0 1.7 1.4 3 3 3h32c1.7 0 3-1.3 3-3V3c0-1.7-1.4-3-3-3z"/>
  <path fill="#fff"
        d="M35 1c1.1 0 2 .9 2 2v18c0 1.1-.9 2-2 2H3c-1.1 0-2-.9-2-2V3c0-1.1.9-2 2-2h32"/>

  <!-- CENTERED LOGO -->
  <g transform="translate(19 12) scale(0.22) translate(-73.5 -20)">
    <path fill-rule="evenodd" clip-rule="evenodd"
          d="M0 0V9.84751H16.9772V39.0715H26.6576V9.84751H43.6357V0H0ZM61.3161 20.5905V8.96034H76.098C83.3763 8.96034 84.4398 20.5905 74.6606 20.5905H61.3161ZM74.2729 26.4813C74.2729 26.4813 84.6872 28.6073 89.8385 21.4232C94.8431 14.4431 90.9251 0 77.7006 0H51.6357V39.0725H61.3161V26.4813C61.3161 26.4813 72.2954 37.1467 87.3349 38.525C90.0785 38.7751 92.7186 39.0725 95.2724 39.0725V28.7274C95.2724 28.7274 86.1082 32.0964 74.2729 26.4813ZM137.818 29.2813V0H146.908V39.0715H137.818V33.3691C125.666 45.1322 108.028 40.0039 104.136 26.4305C103.56 24.4226 103.272 22.1257 103.272 19.5362V0H112.823V18.4386C112.823 22.3058 113.713 25.0827 115.489 26.7592C118.607 29.7041 124.439 29.2785 124.439 29.2785C127.871 29.0588 133.318 25.1122 133.318 25.1122C133.318 25.1122 136.107 27.8236 137.818 29.2813Z"
          fill="#2B3497"/>
  </g>

</svg>
